<!DOCTYPE svg PUBLIC "-//W3C//DTD SVG 1.1//EN" "http://www.w3.org/Graphics/SVG/1.1/DTD/svg11.dtd">
<!-- Uploaded to: SVG Repo, www.svgrepo.com, Transformed by: SVG Repo Mixer Tools -->
<svg width="800px" height="800px" viewBox="-2.4 -2.4 28.80 28.80" fill="none" xmlns="http://www.w3.org/2000/svg">
<g id="SVGRepo_bgCarrier" stroke-width="0">
<path transform="translate(-2.4, -2.4), scale(0.8999999999999999)" d="M16,28.196878435356275C18.227512626233914,28.40084413566562,20.362897963133477,30.15987436179004,22.498230987414686,29.49371568523598C24.60024843263689,28.837950451672878,26.11200964386244,26.78488563059004,26.993696988961336,24.767180794133278C27.831853556433476,22.849094332648626,26.644902500991304,20.569958695361187,27.270562923930576,18.572432440090722C27.968446643629743,16.344321148224317,30.89381513376359,14.955408227014722,30.797611984896022,12.62254162789001C30.705991341877805,10.400797948982275,28.418170414375936,8.91474979607586,26.809011653529133,7.380100846190729C25.329145855605088,5.968758132212695,23.54418182804079,5.034800550933994,21.77182533002998,4.014681204914565C19.887779883763805,2.9302767915400425,18.173383076217398,1.114391282839808,16.000000000000004,1.1587329038551886C13.823929091428372,1.2031293623471788,12.355191157216865,3.42435651822157,10.340489180845037,4.247904689892085C8.177683857862787,5.131992952230969,5.206435742549414,4.405200402262902,3.696283577134425,6.188113568409296C2.197414120411848,7.957706163067472,3.0677185814525636,10.69953326253208,2.915808024410156,13.013618563903652C2.783424420620031,15.030245700540403,2.1231275276456882,17.116503537070628,2.8552200510991597,19.000210245631102C3.573231982840583,20.84768696383002,5.689058116114809,21.68789115360912,6.897592553212009,23.258927713578444C8.13082299777638,24.86206789378832,8.272814051673924,27.38947390421974,10.050658871561897,28.353934148709527C11.816539017033573,29.311903695764027,13.9993801461939,28.01368852894293,16,28.196878435356275" fill="#ffffff" strokewidth="0"/>
</g>
<g id="SVGRepo_tracerCarrier" stroke-linecap="round" stroke-linejoin="round"/>
<g id="SVGRepo_iconCarrier"> <path d="M20.58 19.37L17.59 11.01C17.38 10.46 16.91 10.12 16.37 10.12C15.83 10.12 15.37 10.46 15.14 11.03L12.16 19.37C12.02 19.76 12.22 20.19 12.61 20.33C13 20.47 13.43 20.27 13.57 19.88L14.19 18.15H18.54L19.16 19.88C19.27 20.19 19.56 20.38 19.87 20.38C19.95 20.38 20.04 20.37 20.12 20.34C20.51 20.2 20.71 19.77 20.57 19.38L20.58 19.37ZM14.74 16.64L16.38 12.05L18.02 16.64H14.74ZM12.19 7.85C9.92999 11.42 7.89 13.58 5.41 15.02C5.29 15.09 5.16 15.12 5.04 15.12C4.78 15.12 4.53 14.99 4.39 14.75C4.18 14.39 4.3 13.93 4.66 13.73C6.75999 12.51 8.48 10.76 10.41 7.86H4.12C3.71 7.86 3.37 7.52 3.37 7.11C3.37 6.7 3.71 6.36 4.12 6.36H7.87V4.38C7.87 3.97 8.21 3.63 8.62 3.63C9.02999 3.63 9.37 3.97 9.37 4.38V6.36H13.12C13.53 6.36 13.87 6.7 13.87 7.11C13.87 7.52 13.53 7.86 13.12 7.86H12.18L12.19 7.85ZM12.23 15.12C12.1 15.12 11.97 15.09 11.85 15.02C11.2 14.64 10.57 14.22 9.97999 13.78C9.64999 13.53 9.58 13.06 9.83 12.73C10.08 12.4 10.55 12.33 10.88 12.58C11.42 12.99 12.01 13.37 12.61 13.72C12.97 13.93 13.09 14.39 12.88 14.75C12.74 14.99 12.49 15.12 12.23 15.12Z" fill="#d4d4d4"/> </g>
</svg>