<svg version="1.1" viewBox="293.06996625421823 114.42320000000001 407.91563554555677 332.704" xmlns:xlink="http://www.w3.org/1999/xlink" xmlns="http://www.w3.org/2000/svg" style="max-height: 500px" width="407.91563554555677" height="332.704">
<g id="surface1">
<path d="M 530.070312 251.730469 C 550.402344 252.605469 569.855469 247.703125 589.089844 241.851562 C 607.738281 236.140625 625.65625 228.824219 642.769531 219.53125 C 647.007812 217.261719 651.324219 218.289062 655.640625 218.214844 C 658.417969 218.214844 661.199219 218.578125 663.976562 218.726562 C 665.585938 218.800781 666.828125 219.457031 667.414062 220.996094 C 668 222.457031 667.707031 223.996094 666.609375 225.09375 C 664.855469 226.703125 662.953125 228.238281 660.90625 229.628906 C 639.769531 244.191406 616.148438 253.339844 591.648438 260.582031 C 565.757812 268.265625 539.136719 271.414062 512.226562 272.949219 C 510.03125 273.097656 508.789062 273.902344 507.617188 275.804688 C 497.011719 293.734375 480.703125 301.78125 460.445312 302.953125 C 456.425781 303.171875 452.476562 303.539062 448.378906 302.953125 C 448.671875 301.417969 450.0625 301.269531 451.011719 300.683594 C 459.789062 295.050781 466.882812 287.804688 471.269531 278.21875 C 472.367188 275.949219 472.222656 274.925781 469.367188 275.144531 C 454.742188 276.242188 440.335938 278.292969 426.734375 284.074219 C 421.46875 286.34375 416.566406 289.34375 412.617188 293.660156 C 405.671875 301.125 405.742188 309.90625 412.617188 317.515625 C 418.46875 323.953125 426.148438 327.320312 434.117188 329.957031 C 450.0625 335.222656 466.515625 337.347656 483.191406 338.222656 C 520.488281 340.054688 555.445312 330.761719 589.527344 316.785156 C 600.789062 312.171875 611.757812 306.976562 623.460938 303.390625 C 642.257812 297.683594 660.394531 298.707031 676.628906 310.78125 C 687.304688 318.757812 694.691406 328.929688 693.816406 343.199219 C 693.15625 354.46875 680.578125 360.910156 671.21875 354.910156 C 667.707031 352.640625 665.660156 349.199219 665 345.394531 C 663.390625 337.125 652.273438 330.46875 644.816406 329.957031 C 635.527344 329.371094 627.335938 332.371094 619.074219 335.738281 C 599.179688 343.785156 579.363281 352.203125 558.589844 358.054688 C 540.015625 363.25 521.21875 366.25 501.914062 367.128906 C 481.65625 368.082031 461.835938 366.472656 442.089844 362.300781 C 432.363281 360.25 422.855469 357.105469 413.859375 352.785156 C 402.234375 347.226562 392.433594 339.320312 385.046875 328.710938 C 385.703125 326.734375 384.535156 325.199219 384.023438 323.441406 C 381.753906 316.492188 381.242188 309.464844 382.707031 302.292969 C 385.996094 286.488281 396.457031 275.949219 409.984375 269.070312 C 422.050781 262.925781 435.289062 259.191406 448.890625 257.4375 C 454.304688 256.777344 459.789062 256.632812 465.273438 255.09375 C 458.691406 249.386719 452.695312 243.898438 448.671875 236.214844 C 444.796875 228.75 442.894531 221.289062 442.96875 213.019531 C 443.042969 208.042969 444.941406 203.503906 445.308594 198.675781 C 448.527344 194.578125 450.28125 189.527344 454.230469 186.089844 C 453.574219 184.773438 452.769531 185.210938 452.183594 185.359375 C 417.003906 193.773438 388.484375 212.433594 366.324219 240.898438 C 356.671875 253.265625 349.871094 266.949219 347.089844 282.535156 C 345.921875 289.269531 345.773438 296.074219 345.921875 302.878906 C 345.992188 305.808594 345.921875 308.734375 342.261719 309.464844 C 338.605469 310.199219 336.851562 307.710938 335.828125 304.855469 C 333.5625 298.636719 332.757812 292.121094 332.683594 285.535156 C 332.683594 284.367188 332.683594 283.121094 332.390625 281.953125 C 330.929688 283.855469 330.929688 286.195312 330.855469 288.246094 C 329.757812 319.5625 340.144531 345.835938 365.375 365.152344 C 376.78125 373.933594 390.457031 377.738281 404.574219 379.789062 C 425.855469 382.863281 447.0625 380.8125 468.34375 379.351562 C 471.488281 379.128906 474.632812 378.546875 477.78125 378.398438 C 482.019531 378.105469 485.824219 379.277344 488.164062 383.15625 C 491.746094 389.15625 488.53125 396.035156 481.363281 397.132812 C 472.441406 398.449219 463.519531 399.402344 454.523438 400.207031 C 446.992188 400.9375 439.53125 401.886719 431.996094 401.742188 C 429.585938 401.742188 430.023438 402.839844 431.046875 404.15625 C 434.921875 408.988281 440.261719 411.695312 446.039062 413.304688 C 463.226562 417.988281 480.777344 418.792969 498.476562 418.0625 C 520.855469 417.109375 541.769531 409.9375 562.6875 402.839844 C 580.164062 396.914062 597.058594 389.375 614.683594 383.960938 C 638.234375 376.714844 659.660156 380.519531 678.089844 397.425781 C 686.0625 404.742188 691.476562 413.816406 692.71875 424.867188 C 694.179688 437.304688 682.917969 446.964844 671.730469 442.722656 C 666.316406 440.671875 663.683594 436.207031 662.515625 430.867188 C 659.882812 419.230469 650.519531 411.328125 638.671875 410.449219 C 627.996094 409.644531 618.339844 413.15625 608.6875 416.964844 C 587.917969 425.160156 567.074219 433.207031 545.425781 439.136719 C 524.367188 444.84375 503.011719 448.136719 481.214844 447.113281 C 430.390625 444.769531 384.609375 429.039062 347.164062 393.328125 C 327.78125 374.8125 313.886719 352.566406 307.890625 326.222656 C 299.480469 289.34375 305.84375 254.800781 326.320312 222.898438 C 331 215.578125 336.339844 208.847656 341.898438 202.1875 C 342.335938 201.675781 343.066406 201.238281 342.703125 199.847656 C 339.628906 200.285156 336.414062 200.726562 333.269531 201.238281 C 329.902344 201.75 329.171875 201.164062 330.34375 197.796875 C 335.390625 184.039062 333.707031 185.210938 347.308594 184.550781 C 352.792969 184.261719 358.207031 183.96875 363.765625 184.261719 C 367.128906 184.40625 369.617188 181.84375 371.882812 179.796875 C 373.273438 178.550781 371.371094 178.113281 370.347656 178.039062 C 362.230469 177.234375 354.109375 176.648438 345.921875 176.941406 C 338.09375 177.234375 330.414062 177.964844 322.738281 179.429688 C 321.714844 179.648438 320.324219 180.234375 319.59375 179.355469 C 318.859375 178.40625 319.8125 177.308594 320.25 176.355469 C 323.542969 169.550781 327.710938 163.332031 331.878906 156.964844 C 334.074219 153.671875 336.851562 152.648438 340.433594 152.648438 C 355.207031 152.574219 369.761719 154.402344 383.949219 158.648438 C 389.070312 160.183594 394.042969 162.085938 399.089844 163.917969 C 399.746094 164.136719 400.40625 164.503906 401.136719 164.648438 C 403.769531 165.234375 406.695312 164.28125 407.570312 162.453125 C 408.59375 160.332031 405.378906 159.820312 403.839844 159.160156 C 387.019531 151.914062 369.542969 147.230469 351.1875 145.84375 C 348.917969 145.695312 346.578125 145.328125 344.3125 145.035156 C 342.554688 144.816406 342.261719 143.867188 343.140625 142.550781 C 348.1875 135.011719 353.964844 128.207031 360.765625 122.132812 C 362.230469 120.816406 364.058594 121.328125 365.667969 121.546875 C 378.976562 123.230469 391.773438 126.960938 404.355469 131.351562 C 420.515625 136.914062 435.800781 144.304688 450.0625 153.746094 C 452.988281 155.648438 456.058594 154.695312 458.984375 154.402344 C 487.214844 151.550781 515.371094 152.71875 543.453125 156.671875 C 583.824219 162.308594 622.511719 174.160156 660.394531 188.796875 C 663.539062 190.039062 666.828125 190.992188 669.753906 192.75 C 673.265625 194.945312 675.019531 198.382812 674.433594 201.894531 C 673.777344 206.140625 671.070312 208.042969 667.195312 208.992188 C 664.78125 209.578125 662.367188 209.507812 659.953125 209.433594 C 636.84375 208.699219 614.390625 212.214844 592.378906 218.945312 C 581.847656 222.164062 571.902344 226.703125 563.492188 234.09375 C 559.394531 237.679688 554.570312 239.433594 549.085938 239.214844 C 540.234375 229.777344 541.039062 223.410156 552.523438 216.96875 C 565.976562 209.359375 580.605469 204.96875 595.523438 201.53125 C 606.273438 199.042969 617.171875 197.140625 629.019531 196.40625 C 627.703125 195.75 627.191406 195.457031 626.605469 195.308594 C 608.613281 189.382812 590.257812 184.699219 571.753906 180.453125 C 571.242188 180.308594 570.804688 180.453125 570.511719 180.894531 C 564.660156 178.917969 558.738281 177.160156 552.742188 175.84375 C 529.777344 170.941406 506.449219 170.503906 483.046875 170.867188 C 481.875 170.867188 480.632812 171.160156 479.460938 171.453125 C 477.558594 171.964844 476.242188 173.0625 476.023438 175.1875 C 475.804688 177.453125 477.414062 178.550781 479.097656 179.285156 C 481.144531 180.160156 483.335938 180.308594 485.53125 180.089844 C 491.820312 179.355469 498.183594 179.429688 504.472656 179.871094 C 510.617188 180.308594 516.90625 179.355469 522.902344 181.480469 C 525.242188 187.917969 522.976562 191.285156 516.027344 191.285156 C 507.765625 191.285156 499.5 191.136719 491.164062 191.359375 C 475.511719 191.652344 463.152344 204.164062 464.394531 218.507812 C 465.347656 228.898438 470.832031 237.019531 478.730469 243.460938 C 486.996094 250.191406 496.867188 252.753906 507.179688 253.265625 C 514.929688 253.265625 522.609375 253.777344 530.070312 251.730469 Z M 530.070312 251.730469" style="stroke:none;fill-rule:nonzero;fill:rgb(94.117647%,69.803922%,10.980392%);fill-opacity:1;"/>
<path d="M 530.070312 251.730469 C 522.609375 253.703125 514.929688 253.191406 507.324219 252.898438 C 496.941406 252.460938 487.066406 249.828125 478.875 243.09375 C 470.976562 236.65625 465.492188 228.53125 464.542969 218.140625 C 463.226562 203.796875 475.660156 191.285156 491.308594 190.992188 C 499.574219 190.847656 507.835938 190.992188 516.175781 190.917969 C 523.050781 190.917969 525.390625 187.554688 523.050781 181.113281 C 527.800781 180.894531 532.484375 180.96875 536.871094 183.089844 C 536.871094 184.332031 535.773438 184.917969 535.117188 185.722656 C 532.265625 189.820312 532.410156 195.164062 535.554688 198.894531 C 538.773438 202.699219 543.890625 203.796875 548.425781 201.675781 C 554.570312 198.75 556.179688 193.917969 553.839844 186.089844 C 562.394531 187.1875 570.730469 189.601562 579.214844 191.210938 C 580.53125 191.429688 581.847656 191.945312 583.457031 191.285156 C 580.386719 185.941406 574.828125 184.113281 570.660156 180.601562 C 570.949219 180.089844 571.390625 180.015625 571.902344 180.160156 C 590.40625 184.332031 608.761719 189.089844 626.75 195.015625 C 627.335938 195.164062 627.847656 195.527344 629.164062 196.113281 C 617.316406 196.847656 606.421875 198.75 595.671875 201.238281 C 580.75 204.675781 566.050781 209.066406 552.667969 216.675781 C 541.1875 223.191406 540.382812 229.554688 549.230469 238.921875 C 527.363281 243.824219 500.011719 237.753906 487.285156 215.726562 C 486.703125 214.773438 486.191406 213.019531 484.800781 213.75 C 483.335938 214.480469 484.726562 215.945312 485.019531 216.96875 C 490.652344 236.140625 504.179688 246.386719 523.195312 250.265625 C 525.390625 250.851562 527.730469 251.289062 530.070312 251.730469 Z M 530.070312 251.730469" style="stroke:none;fill-rule:nonzero;fill:rgb(67.843137%,54.117647%,26.666667%);fill-opacity:1;"/>
<path d="M 445.382812 198.601562 C 445.015625 203.433594 443.113281 207.96875 443.042969 212.945312 C 442.96875 221.214844 444.796875 228.75 448.746094 236.140625 C 452.769531 243.824219 458.765625 249.386719 465.347656 255.023438 C 459.863281 256.558594 454.375 256.707031 448.964844 257.363281 C 435.363281 259.121094 422.125 262.851562 410.058594 269 C 396.527344 275.878906 386.070312 286.414062 382.78125 302.222656 C 381.242188 309.394531 381.828125 316.417969 384.097656 323.371094 C 384.679688 325.050781 385.777344 326.664062 385.121094 328.636719 C 376.417969 318.394531 370.785156 306.976562 368.664062 293.441406 C 364.203125 264.753906 378.316406 244.339844 397.40625 226.191406 C 410.058594 214.117188 425.195312 205.773438 441.433594 199.554688 C 442.75 198.96875 443.992188 198.238281 445.382812 198.601562 Z M 370.128906 285.902344 C 370.128906 286.269531 370.128906 286.632812 370.128906 287 C 370.347656 289.5625 370.492188 292.269531 373.855469 292.707031 C 377.074219 293.148438 377.953125 290.734375 378.902344 288.390625 C 379.925781 285.757812 380.660156 283.050781 381.828125 280.5625 C 388.117188 267.167969 398.574219 257.511719 410.421875 249.167969 C 417.957031 243.898438 426.367188 240.3125 434.410156 236.140625 C 438.800781 233.875 440.480469 229.410156 438.652344 225.53125 C 436.460938 220.996094 431.558594 219.019531 427.023438 221.140625 C 423.515625 222.75 420.152344 224.726562 416.714844 226.554688 C 402.378906 234.167969 389.800781 243.898438 380.660156 257.582031 C 374.882812 266.144531 370.933594 275.4375 370.128906 285.902344 Z M 370.128906 285.902344" style="stroke:none;fill-rule:nonzero;fill:rgb(67.843137%,54.117647%,26.666667%);fill-opacity:1;"/>
<path d="M 520.5625 400.351562 C 516.175781 400.351562 513.25 398.15625 512.226562 394.496094 C 511.128906 390.621094 512.664062 386.375 516.101562 384.839844 C 520.269531 383.007812 524.730469 381.546875 529.046875 380.15625 C 549.15625 373.570312 569.34375 366.984375 589.453125 360.46875 C 591.429688 359.8125 593.328125 359.226562 595.449219 359.8125 C 599.328125 360.835938 602.105469 363.691406 602.398438 367.347656 C 602.691406 371.007812 600.277344 374.738281 596.402344 375.984375 C 571.976562 383.960938 547.546875 391.863281 523.121094 399.839844 C 522.171875 400.207031 521.074219 400.277344 520.5625 400.351562 Z M 520.5625 400.351562" style="stroke:none;fill-rule:nonzero;fill:rgb(94.117647%,69.803922%,10.980392%);fill-opacity:1;"/>
<path d="M 493.867188 329.808594 C 490.945312 329.664062 487.507812 329.664062 484.140625 329.296875 C 479.898438 328.859375 477.339844 325.859375 477.265625 321.757812 C 477.265625 317.589844 479.753906 314.296875 483.996094 314.074219 C 490.945312 313.785156 497.890625 313.785156 504.765625 314.003906 C 508.640625 314.148438 511.566406 317.734375 511.640625 321.6875 C 511.714844 325.273438 508.496094 328.785156 504.546875 329.222656 C 501.183594 329.589844 497.816406 329.589844 493.867188 329.808594 Z M 493.867188 329.808594" style="stroke:none;fill-rule:nonzero;fill:rgb(94.117647%,69.803922%,10.980392%);fill-opacity:1;"/>
<path d="M 536.796875 183.164062 C 542.722656 182.648438 548.28125 183.820312 553.691406 186.164062 C 556.105469 193.992188 554.421875 198.820312 548.28125 201.75 C 543.820312 203.871094 538.625 202.773438 535.410156 198.96875 C 532.265625 195.238281 532.117188 189.894531 534.96875 185.796875 C 535.628906 184.992188 536.796875 184.40625 536.796875 183.164062 Z M 536.796875 183.164062" style="stroke:none;fill-rule:nonzero;fill:rgb(26.666667%,18.823529%,5.882353%);fill-opacity:1;"/>
<path d="M 370.128906 285.902344 C 371.003906 275.4375 374.882812 266.144531 380.660156 257.582031 C 389.800781 243.898438 402.378906 234.167969 416.714844 226.554688 C 420.152344 224.726562 423.515625 222.75 427.023438 221.140625 C 431.484375 219.09375 436.460938 221.066406 438.652344 225.53125 C 440.554688 229.410156 438.800781 233.875 434.410156 236.140625 C 426.292969 240.3125 417.882812 243.898438 410.421875 249.167969 C 398.574219 257.511719 388.117188 267.167969 381.828125 280.5625 C 380.660156 283.050781 379.925781 285.828125 378.902344 288.390625 C 378.027344 290.660156 377.074219 293.148438 373.855469 292.707031 C 370.492188 292.269531 370.347656 289.5625 370.128906 287 C 370.054688 286.632812 370.128906 286.269531 370.128906 285.902344 Z M 370.128906 285.902344" style="stroke:none;fill-rule:nonzero;fill:rgb(94.117647%,69.803922%,10.980392%);fill-opacity:1;"/>
</g>
</svg>